# xmcd CD database file
#
# Track frame offsets:
#	180
#	11525
#	23542
#	38269
#	47751
#	58483
#	73680
#	88344
#	100733
#	113232
#	125992
#	138140
#	151115
#	164750
#	178272
#	192601
#	206062
#	221588
#	233462
#	246905
#
# Disc length: 3460 seconds
#
# Revision: 1
# Processed by: cddbd v1.5.1PL2 Copyright (c) Steve Scherf et al.
# Submitted via: CDex 1.51
#
DISCID=200d8214
DTITLE=GlennMiller - GlennMiller CD4
DYEAR=1900
DGENRE=Jazz
TTITLE0=The Jumpin' Jive
TTITLE1=What's The Matter With Me?
TTITLE2=Along The Santa Fe Trail
TTITLE3=Be Happy
TTITLE4=Sierra Sue
TTITLE5=Ring Telephone, Ring
TTITLE6=Yersterthoughts
TTITLE7=Fresh As A Daisy
TTITLE8=A Cabana In Havana
TTITLE9=I Do, Do You? (Do You Believe In Love?)
TTITLE10=Dear Arabella
TTITLE11=Ev'Rything I Love
TTITLE12=I'm Thrilled
TTITLE13=Long Tall Mama
TTITLE14=Orange Blessom Lane
TTITLE15=Spring Will Be So Bad (When She Comes This Year)
TTITLE16=The Story Of A Starry Night
TTITLE17=Caribean Clipper
TTITLE18=That Old Black Magic
TTITLE19=Moonlight Mood
EXTD=
EXTT0=
EXTT1=
EXTT2=
EXTT3=
EXTT4=
EXTT5=
EXTT6=
EXTT7=
EXTT8=
EXTT9=
EXTT10=
EXTT11=
EXTT12=
EXTT13=
EXTT14=
EXTT15=
EXTT16=
EXTT17=
EXTT18=
EXTT19=
PLAYORDER=
